<svg width="20" height="20" viewBox="0 0 20 20" fill="none" xmlns="http://www.w3.org/2000/svg">
<path d="M13.75 18.9583H6.25C3.5 18.9583 3.125 17.4583 3.125 15.8333V8.5166C3.125 8.17493 3.40833 7.8916 3.75 7.8916C4.09167 7.8916 4.375 8.17493 4.375 8.5166V15.8333C4.375 17.2833 4.625 17.7083 6.25 17.7083H13.75C15.375 17.7083 15.625 17.2833 15.625 15.8333V8.5166C15.625 8.17493 15.9083 7.8916 16.25 7.8916C16.5917 7.8916 16.875 8.17493 16.875 8.5166V15.8333C16.875 17.4583 16.5 18.9583 13.75 18.9583Z" fill="#99999B"/>
<path d="M15.8333 8.95817H4.16663C2.14996 8.95817 1.04163 7.84984 1.04163 5.83317V4.1665C1.04163 2.14984 2.14996 1.0415 4.16663 1.0415H15.8333C17.85 1.0415 18.9583 2.14984 18.9583 4.1665V5.83317C18.9583 7.84984 17.85 8.95817 15.8333 8.95817ZM4.16663 2.2915C2.84996 2.2915 2.29163 2.84984 2.29163 4.1665V5.83317C2.29163 7.14984 2.84996 7.70817 4.16663 7.70817H15.8333C17.15 7.70817 17.7083 7.14984 17.7083 5.83317V4.1665C17.7083 2.84984 17.15 2.2915 15.8333 2.2915H4.16663Z" fill="#99999B"/>
<path d="M11.5164 12.2915H8.48303C8.14137 12.2915 7.85803 12.0082 7.85803 11.6665C7.85803 11.3248 8.14137 11.0415 8.48303 11.0415H11.5164C11.858 11.0415 12.1414 11.3248 12.1414 11.6665C12.1414 12.0082 11.858 12.2915 11.5164 12.2915Z" fill="#99999B"/>
</svg>
