<svg width="20" height="20" viewBox="0 0 20 20" fill="none" xmlns="http://www.w3.org/2000/svg">
<path d="M12.5 18.9582H7.49996C2.97496 18.9582 1.04163 17.0248 1.04163 12.4998V7.49984C1.04163 2.97484 2.97496 1.0415 7.49996 1.0415H12.5C17.025 1.0415 18.9583 2.97484 18.9583 7.49984V12.4998C18.9583 17.0248 17.025 18.9582 12.5 18.9582ZM7.49996 2.2915C3.65829 2.2915 2.29163 3.65817 2.29163 7.49984V12.4998C2.29163 16.3415 3.65829 17.7082 7.49996 17.7082H12.5C16.3416 17.7082 17.7083 16.3415 17.7083 12.4998V7.49984C17.7083 3.65817 16.3416 2.2915 12.5 2.2915H7.49996Z" fill="#99999B"/>
<path d="M8.01666 15.0416C6.7 15.0416 5.625 13.9666 5.625 12.65C5.625 11.3333 6.7 10.2583 8.01666 10.2583C9.33333 10.2583 10.4083 11.3333 10.4083 12.65C10.4083 13.9666 9.33333 15.0416 8.01666 15.0416ZM8.01666 11.5166C7.39166 11.5166 6.875 12.025 6.875 12.6583C6.875 13.2833 7.38333 13.8 8.01666 13.8C8.64166 13.8 9.15833 13.2916 9.15833 12.6583C9.15833 12.025 8.64166 11.5166 8.01666 11.5166Z" fill="#99999B"/>
<path d="M9.78357 13.2751C9.4419 13.2751 9.15857 12.9917 9.15857 12.6501V6.4751C9.15857 6.13343 9.4419 5.8501 9.78357 5.8501C10.1252 5.8501 10.4086 6.13343 10.4086 6.4751V12.6501C10.4086 13.0001 10.1252 13.2751 9.78357 13.2751Z" fill="#99999B"/>
<path d="M12.9336 9.52492C12.7586 9.52492 12.5752 9.4916 12.3919 9.43327L10.4419 8.78324C9.7086 8.54158 9.15857 7.77495 9.15857 6.99995V6.48329C9.15857 5.95829 9.37526 5.49994 9.7586 5.22494C10.1419 4.94994 10.6419 4.88326 11.1419 5.04993L13.0919 5.69995C13.8253 5.94162 14.3752 6.70824 14.3752 7.48324V7.99991C14.3752 8.52491 14.1586 8.98325 13.7753 9.25825C13.5336 9.43325 13.2419 9.52492 12.9336 9.52492ZM10.5919 6.20827C10.5503 6.20827 10.5086 6.21658 10.4836 6.23324C10.4336 6.26658 10.4002 6.35828 10.4002 6.47494V6.99161C10.4002 7.22494 10.6169 7.51658 10.8336 7.59158L12.7836 8.24161C12.8919 8.27494 12.9919 8.27494 13.0419 8.24161C13.0919 8.20827 13.1252 8.11657 13.1252 7.99991V7.48324C13.1252 7.24991 12.9086 6.95827 12.6919 6.88327L10.7419 6.23324C10.6919 6.21658 10.6336 6.20827 10.5919 6.20827Z" fill="#99999B"/>
</svg>
