<svg width="26" height="26" viewBox="0 0 26 26" fill="none" xmlns="http://www.w3.org/2000/svg">
<path d="M17.8 8.57812C19.7096 8.57812 21.5409 9.37662 22.8912 10.7979C24.2414 12.2193 25 14.147 25 16.1571V24.9992H20.2V16.1571C20.2 15.4871 19.9471 14.8445 19.4971 14.3707C19.047 13.8969 18.4365 13.6308 17.8 13.6308C17.1635 13.6308 16.553 13.8969 16.1029 14.3707C15.6529 14.8445 15.4 15.4871 15.4 16.1571V24.9992H10.6V16.1571C10.6 14.147 11.3586 12.2193 12.7088 10.7979C14.0591 9.37662 15.8904 8.57813 17.8 8.57812ZM1 9.84128H5.8V24.9992H1V9.84128Z" stroke="#0D010E" stroke-width="1.5" stroke-linecap="round" stroke-linejoin="round"/>
<path d="M3.4 6.05263C4.72548 6.05263 5.8 4.92156 5.8 3.52632C5.8 2.13107 4.72548 1 3.4 1C2.07452 1 1 2.13107 1 3.52632C1 4.92156 2.07452 6.05263 3.4 6.05263Z" stroke="#0D010E" stroke-width="1.5" stroke-linecap="round" stroke-linejoin="round"/>
</svg>
