<svg width="20" height="20" viewBox="0 0 20 20" fill="none" xmlns="http://www.w3.org/2000/svg">
<path d="M13.3333 18.9582H6.66667C3.625 18.9582 1.875 17.2082 1.875 14.1665V5.83317C1.875 2.7915 3.625 1.0415 6.66667 1.0415H13.3333C16.375 1.0415 18.125 2.7915 18.125 5.83317V14.1665C18.125 17.2082 16.375 18.9582 13.3333 18.9582ZM6.66667 2.2915C4.28333 2.2915 3.125 3.44984 3.125 5.83317V14.1665C3.125 16.5498 4.28333 17.7082 6.66667 17.7082H13.3333C15.7167 17.7082 16.875 16.5498 16.875 14.1665V5.83317C16.875 3.44984 15.7167 2.2915 13.3333 2.2915H6.66667Z" fill="#99999B"/>
<path d="M7.50004 9.25816C7.35837 9.25816 7.21671 9.23318 7.08337 9.17484C6.70004 9.00818 6.45837 8.63317 6.45837 8.22483V1.6665C6.45837 1.32484 6.74171 1.0415 7.08337 1.0415H12.9167C13.2584 1.0415 13.5417 1.32484 13.5417 1.6665V8.21649C13.5417 8.63316 13.3 9.00817 12.9167 9.1665C12.5417 9.33317 12.1001 9.25819 11.7917 8.97485L10 7.33316L8.20835 8.98319C8.00835 9.16653 7.75837 9.25816 7.50004 9.25816ZM10 6.00819C10.25 6.00819 10.5084 6.09982 10.7084 6.28315L12.2917 7.74148V2.2915H7.70837V7.74148L9.29173 6.28315C9.49173 6.09982 9.75004 6.00819 10 6.00819Z" fill="#99999B"/>
<path d="M14.5833 12.2915H11.0416C10.7 12.2915 10.4166 12.0082 10.4166 11.6665C10.4166 11.3248 10.7 11.0415 11.0416 11.0415H14.5833C14.925 11.0415 15.2083 11.3248 15.2083 11.6665C15.2083 12.0082 14.925 12.2915 14.5833 12.2915Z" fill="#99999B"/>
<path d="M14.5833 15.625H7.5C7.15833 15.625 6.875 15.3417 6.875 15C6.875 14.6583 7.15833 14.375 7.5 14.375H14.5833C14.925 14.375 15.2083 14.6583 15.2083 15C15.2083 15.3417 14.925 15.625 14.5833 15.625Z" fill="#99999B"/>
</svg>
