<svg width="20" height="20" viewBox="0 0 20 20" fill="none" xmlns="http://www.w3.org/2000/svg">
<path d="M15.3001 18.9582H4.65839C3.39172 18.9582 2.23338 18.3165 1.56672 17.2332C0.900051 16.1499 0.841718 14.8332 1.40838 13.6915L2.84172 10.8165C3.30838 9.88319 4.05839 9.29986 4.90005 9.20819C5.74172 9.11652 6.60005 9.53319 7.25005 10.3415L7.43339 10.5749C7.80005 11.0249 8.22505 11.2665 8.64172 11.2249C9.05839 11.1915 9.44172 10.8915 9.72505 10.3832L11.3001 7.54152C11.9501 6.36652 12.8167 5.75819 13.7584 5.79986C14.6917 5.84986 15.4917 6.54986 16.0251 7.78319L18.6334 13.8749C19.1167 14.9999 19.0001 16.2832 18.3251 17.3082C17.6584 18.3499 16.5251 18.9582 15.3001 18.9582ZM5.13338 10.4582C5.10005 10.4582 5.06672 10.4582 5.03338 10.4665C4.61672 10.5082 4.23338 10.8415 3.95838 11.3832L2.52505 14.2582C2.15005 14.9999 2.19172 15.8749 2.62505 16.5832C3.05838 17.2915 3.82505 17.7165 4.65839 17.7165H15.2917C16.1084 17.7165 16.8334 17.3249 17.2834 16.6415C17.7334 15.9582 17.8084 15.1415 17.4834 14.3915L14.8751 8.29986C14.5584 7.54986 14.1167 7.09152 13.6917 7.07486C13.3001 7.04986 12.7917 7.46652 12.3917 8.17486L10.8167 11.0165C10.3334 11.8832 9.57505 12.4249 8.75005 12.4999C7.92505 12.5665 7.08339 12.1665 6.45839 11.3832L6.27505 11.1499C5.92505 10.6915 5.52505 10.4582 5.13338 10.4582Z" fill="#99999B"/>
<path d="M5.80835 7.2915C4.09168 7.2915 2.68335 5.8915 2.68335 4.1665C2.68335 2.4415 4.08335 1.0415 5.80835 1.0415C7.53335 1.0415 8.93335 2.4415 8.93335 4.1665C8.93335 5.8915 7.53335 7.2915 5.80835 7.2915ZM5.80835 2.2915C4.77502 2.2915 3.93335 3.13317 3.93335 4.1665C3.93335 5.19984 4.77502 6.0415 5.80835 6.0415C6.84168 6.0415 7.68335 5.19984 7.68335 4.1665C7.68335 3.13317 6.84168 2.2915 5.80835 2.2915Z" fill="#99999B"/>
</svg>
