<svg width="20" height="20" viewBox="0 0 20 20" fill="none" xmlns="http://www.w3.org/2000/svg">
<path d="M10.7333 17.3834H5.67496C2.71663 17.3834 1.66663 15.3084 1.66663 13.375V6.62503C1.66663 3.7417 2.79163 2.6167 5.67496 2.6167H10.7333C13.6166 2.6167 14.7416 3.7417 14.7416 6.62503V13.375C14.7416 16.2584 13.6166 17.3834 10.7333 17.3834ZM5.67496 3.88337C3.49996 3.88337 2.93329 4.45003 2.93329 6.62503V13.375C2.93329 14.4 3.29163 16.1167 5.67496 16.1167H10.7333C12.9083 16.1167 13.475 15.55 13.475 13.375V6.62503C13.475 4.45003 12.9083 3.88337 10.7333 3.88337H5.67496V3.88337Z" fill="#99999B"/>
<path d="M17.3164 15.0916C16.958 15.0916 16.4997 14.9749 15.9747 14.6082L13.7497 13.0499C13.583 12.9332 13.483 12.7416 13.483 12.5332V7.46658C13.483 7.25825 13.583 7.06658 13.7497 6.94991L15.9747 5.39158C16.9664 4.69991 17.6914 4.89991 18.033 5.07491C18.3747 5.25825 18.958 5.73325 18.958 6.94158V13.0499C18.958 14.2582 18.3747 14.7416 18.033 14.9166C17.8747 15.0082 17.6247 15.0916 17.3164 15.0916ZM14.7414 12.1999L16.6997 13.5666C17.0747 13.8249 17.3414 13.8499 17.4497 13.7916C17.5664 13.7332 17.6914 13.4999 17.6914 13.0499V6.94991C17.6914 6.49158 17.558 6.26658 17.4497 6.20825C17.3414 6.14991 17.0747 6.17491 16.6997 6.43325L14.7414 7.79991V12.1999Z" fill="#99999B"/>
<path d="M9.58337 9.7915C8.55004 9.7915 7.70837 8.94984 7.70837 7.9165C7.70837 6.88317 8.55004 6.0415 9.58337 6.0415C10.6167 6.0415 11.4584 6.88317 11.4584 7.9165C11.4584 8.94984 10.6167 9.7915 9.58337 9.7915ZM9.58337 7.2915C9.24171 7.2915 8.95837 7.57484 8.95837 7.9165C8.95837 8.25817 9.24171 8.5415 9.58337 8.5415C9.92504 8.5415 10.2084 8.25817 10.2084 7.9165C10.2084 7.57484 9.92504 7.2915 9.58337 7.2915Z" fill="#99999B"/>
</svg>
