<svg width="20" height="20" viewBox="0 0 20 20" fill="none" xmlns="http://www.w3.org/2000/svg">
<path d="M12.5 18.9582H7.49996C2.97496 18.9582 1.04163 17.0248 1.04163 12.4998V7.49984C1.04163 2.97484 2.97496 1.0415 7.49996 1.0415H12.5C17.025 1.0415 18.9583 2.97484 18.9583 7.49984V12.4998C18.9583 17.0248 17.025 18.9582 12.5 18.9582ZM7.49996 2.2915C3.65829 2.2915 2.29163 3.65817 2.29163 7.49984V12.4998C2.29163 16.3415 3.65829 17.7082 7.49996 17.7082H12.5C16.3416 17.7082 17.7083 16.3415 17.7083 12.4998V7.49984C17.7083 3.65817 16.3416 2.2915 12.5 2.2915H7.49996Z" fill="#99999B"/>
<path d="M8.96662 13.6417C8.61662 13.6417 8.29162 13.5584 7.99995 13.3917C7.33328 13.0084 6.94995 12.2251 6.94995 11.2334V8.76675C6.94995 7.78342 7.33328 6.99175 7.99995 6.60841C8.66662 6.22508 9.53328 6.28342 10.3916 6.78342L12.5333 8.01675C13.3833 8.50841 13.875 9.23341 13.875 10.0001C13.875 10.7667 13.3833 11.4917 12.5333 11.9834L10.3916 13.2167C9.90828 13.5001 9.41662 13.6417 8.96662 13.6417ZM8.97495 7.60841C8.84162 7.60841 8.72495 7.63341 8.63328 7.69175C8.36662 7.85008 8.20828 8.24175 8.20828 8.76675V11.2334C8.20828 11.7584 8.35828 12.1501 8.63328 12.3084C8.89995 12.4667 9.31662 12.4001 9.77495 12.1334L11.9166 10.9001C12.375 10.6334 12.6333 10.3084 12.6333 10.0001C12.6333 9.69175 12.375 9.35841 11.9166 9.10008L9.77495 7.86675C9.47495 7.69175 9.19995 7.60841 8.97495 7.60841Z" fill="#99999B"/>
</svg>
