<svg width="160" height="40" viewBox="0 0 160 40" fill="none" xmlns="http://www.w3.org/2000/svg">
<path d="M5.60216 18.7761C5.60216 21.6262 7.00344 23.0482 9.80304 23.0482H21.0074V28.7453H9.80304C3.26669 28.7453 0 25.4202 0 18.7761V10.232C0 3.58182 3.26669 0.259766 9.80304 0.259766H21.0074V5.95687H9.80304C7.00048 5.95687 5.60216 7.3819 5.60216 10.2289V18.7731V18.7761Z" fill="#0E0E10"/>
<path d="M61.9628 28.7453H56.3606V0.259766H61.1232L61.9628 3.10982C63.8311 1.20978 66.1636 0.259766 68.9662 0.259766C75.5025 0.259766 78.7692 3.58182 78.7692 10.2289V28.7453H73.1671V10.2289C73.1671 7.37889 71.7658 5.95687 68.9662 5.95687C66.1666 5.95687 63.8311 6.43188 61.9628 7.3819V28.7453Z" fill="#0E0E10"/>
<path d="M97.5344 28.7453H90.8118L82.9688 0.259766H88.5709L94.1731 21.6232L99.7752 0.259766H105.377L97.5344 28.7453Z" fill="#0E0E10"/>
<path d="M115.185 16.7799V18.7731C115.185 21.6232 116.587 23.0452 119.386 23.0452H130.591V28.7423H119.386C112.85 28.7423 109.583 25.4202 109.583 18.7731V10.2289C109.583 3.58182 112.85 0.259766 119.386 0.259766H122.189C128.725 0.259766 131.992 3.58182 131.992 10.2289V16.7799H115.185ZM115.185 12.2222H126.39V10.2289C126.39 7.37889 124.988 5.95687 122.189 5.95687H119.386C116.584 5.95687 115.185 7.3819 115.185 10.2289V12.2222Z" fill="#0E0E10"/>
<path d="M154.397 0.254883V21.6153C152.523 22.5773 150.196 23.0493 147.397 23.0493C144.597 23.0493 143.187 21.6153 143.187 18.7772V0.254883H137.585V18.7772C137.585 25.4153 140.857 28.7464 147.397 28.7464C150.196 28.7464 152.526 27.7934 154.397 25.8904V28.7464C154.397 31.6566 153.291 33.4544 151.089 34.1339V40.0023C157.028 39.2688 159.999 35.5138 159.999 28.7464V0.254883H154.397Z" fill="#0E0E10"/>
<path d="M42.79 0H37.1879C32.987 0 30.3559 1.60541 29.3035 4.81623C29.3655 4.86133 29.4365 4.89741 29.4986 4.93348C31.0861 5.85043 32.6736 6.78241 34.27 7.70838C34.3321 7.74446 34.3942 7.78053 34.4563 7.81661C34.6957 6.59301 35.6063 5.98572 37.1849 5.98572H42.7871C44.6614 5.98572 45.5867 6.83953 45.5867 8.54416V19.9354C45.5867 21.8414 44.6584 22.7824 42.7871 22.7824H37.1849C35.9551 22.7824 35.1333 22.3735 34.7135 21.5408C34.6159 21.5949 34.5184 21.649 34.4267 21.7121C32.8303 22.6381 31.2251 23.5701 29.6375 24.5051C30.8407 27.1627 33.3654 28.4855 37.182 28.4855H42.7841C48.3863 28.4855 51.1859 25.6385 51.1859 19.9324V8.54416C51.1859 2.84705 48.3863 0 42.7841 0H42.79Z" fill="#0E0E10"/>
<path d="M39.2482 15.6924C38.9674 15.996 38.6244 16.1884 38.2815 16.3838C36.7472 17.2767 35.2188 18.1726 33.6845 19.0715C33.4657 19.1918 33.2529 19.3181 33.037 19.4443C33.0045 19.4624 32.9809 19.4774 32.9484 19.4954C32.8804 19.5345 32.8124 19.5706 32.7473 19.6157C31.6299 20.2621 30.5094 20.9145 29.3979 21.5699C29.2855 21.633 29.1791 21.6961 29.0668 21.7593C29.0342 21.7773 29.0047 21.7983 28.9722 21.8104C28.8835 21.8615 28.8036 21.9186 28.709 21.9637C28.6144 22.0148 28.5228 22.0599 28.4164 22.102C28.2597 22.1651 28.0971 22.1982 27.9286 22.1922C27.8606 22.1982 27.7926 22.1741 27.7276 22.2042H27.5206C26.8968 22.102 26.5155 21.6961 26.4031 21.0107C26.3588 20.7762 26.3411 20.5296 26.3411 20.2891V9.17752C26.3411 8.75362 26.3913 8.31469 26.5983 7.92686C26.7727 7.61119 27.021 7.38872 27.3728 7.31657C27.7039 7.25343 28.0409 7.26546 28.3632 7.39173C28.3809 7.39774 28.4016 7.40375 28.4193 7.41578C28.4519 7.42179 28.4814 7.43382 28.508 7.44885C28.7268 7.55107 28.9396 7.67733 29.1554 7.79759C29.1998 7.83066 29.25 7.85471 29.2914 7.87876C30.403 8.51912 31.5116 9.17151 32.6291 9.82089C32.6734 9.84494 32.7178 9.872 32.7592 9.89605C32.7917 9.91409 32.8212 9.93513 32.8478 9.94716C34.1397 10.7078 35.4376 11.4624 36.7265 12.217C37.4183 12.6228 38.1248 13.0047 38.8048 13.4466C39.1093 13.63 39.3546 13.8855 39.5084 14.2132C39.7389 14.6942 39.6266 15.2594 39.2393 15.6833L39.2482 15.6924Z" fill="#F97316"/>
</svg>