<svg width="30" height="30" viewBox="0 0 30 30" fill="none" xmlns="http://www.w3.org/2000/svg">
<path d="M3.75 15C3.75 16.4774 4.04099 17.9403 4.60636 19.3052C5.17172 20.6701 6.00039 21.9103 7.04505 22.955C8.08971 23.9996 9.3299 24.8283 10.6948 25.3936C12.0597 25.959 13.5226 26.25 15 26.25C16.4774 26.25 17.9403 25.959 19.3052 25.3936C20.6701 24.8283 21.9103 23.9996 22.955 22.955C23.9996 21.9103 24.8283 20.6701 25.3936 19.3052C25.959 17.9403 26.25 16.4774 26.25 15C26.25 13.5226 25.959 12.0597 25.3936 10.6948C24.8283 9.3299 23.9996 8.08971 22.955 7.04505C21.9103 6.00039 20.6701 5.17172 19.3052 4.60636C17.9403 4.04099 16.4774 3.75 15 3.75C13.5226 3.75 12.0597 4.04099 10.6948 4.60636C9.3299 5.17172 8.08971 6.00039 7.04505 7.04505C6.00039 8.08971 5.17172 9.3299 4.60636 10.6948C4.04099 12.0597 3.75 13.5226 3.75 15Z" stroke="#8F8E92" stroke-width="2.5" stroke-linecap="round" stroke-linejoin="round"/>
<path d="M17.5 12.1872C16.7714 11.5468 15.824 11.212 14.8548 11.2523C13.8856 11.2926 12.9692 11.7049 12.2963 12.4034C11.6243 13.1007 11.2488 14.0313 11.2488 14.9997C11.2488 15.968 11.6243 16.8987 12.2963 17.5959C12.9692 18.2945 13.8856 18.7068 14.8548 18.7471C15.824 18.7874 16.7714 18.4525 17.5 17.8122" stroke="#8F8E92" stroke-width="2.5" stroke-linecap="round" stroke-linejoin="round"/>
</svg>