<svg width="160" height="40" viewBox="0 0 160 40" fill="none" xmlns="http://www.w3.org/2000/svg">
<path d="M5.60216 18.7742C5.60216 21.6242 7.00344 23.0462 9.80304 23.0462H21.0074V28.7433H9.80304C3.26669 28.7433 0 25.4183 0 18.7742V10.23C0 3.57987 3.26669 0.257812 9.80304 0.257812H21.0074V5.95492H9.80304C7.00048 5.95492 5.60216 7.37995 5.60216 10.227V18.7712V18.7742Z" fill="#101010"/>
<path d="M61.9615 28.7433H56.3594V0.257812H61.1219L61.9615 3.10787C63.8299 1.20783 66.1624 0.257812 68.965 0.257812C75.5013 0.257812 78.768 3.57987 78.768 10.227V28.7433H73.1659V10.227C73.1659 7.37694 71.7646 5.95492 68.965 5.95492C66.1654 5.95492 63.8299 6.42993 61.9615 7.37995V28.7433Z" fill="#101010"/>
<path d="M97.5344 28.7433H90.8118L82.9688 0.257812H88.5709L94.1731 21.6212L99.7752 0.257812H105.377L97.5344 28.7433Z" fill="#101010"/>
<path d="M115.184 16.7779V18.7712C115.184 21.6212 116.585 23.0432 119.385 23.0432H130.589V28.7403H119.385C112.849 28.7403 109.582 25.4183 109.582 18.7712V10.227C109.582 3.57987 112.849 0.257812 119.385 0.257812H122.188C128.724 0.257812 131.991 3.57987 131.991 10.227V16.7779H115.184ZM115.184 12.2202H126.388V10.227C126.388 7.37694 124.987 5.95492 122.188 5.95492H119.385C116.583 5.95492 115.184 7.37995 115.184 10.227V12.2202Z" fill="#101010"/>
<path d="M154.398 0.253906V21.6143C152.524 22.5763 150.197 23.0483 147.398 23.0483C144.598 23.0483 143.188 21.6143 143.188 18.7763V0.253906H137.586V18.7763C137.586 25.4144 140.859 28.7454 147.398 28.7454C150.197 28.7454 152.527 27.7924 154.398 25.8894V28.7454C154.398 31.6556 153.293 33.4535 151.09 34.1329V40.0014C157.029 39.2678 160 35.5128 160 28.7454V0.253906H154.398Z" fill="#101010"/>
<path d="M42.7873 0H37.1852C32.9843 0 30.3532 1.60541 29.3008 4.81623C29.3629 4.86133 29.4338 4.89741 29.4959 4.93348C31.0834 5.85043 32.6709 6.78241 34.2673 7.70838C34.3294 7.74446 34.3915 7.78053 34.4536 7.81661C34.693 6.59301 35.6036 5.98572 37.1822 5.98572H42.7844C44.6587 5.98572 45.584 6.83953 45.584 8.54416V19.9354C45.584 21.8414 44.6557 22.7824 42.7844 22.7824H37.1822C35.9524 22.7824 35.1306 22.3735 34.7108 21.5408C34.6132 21.5949 34.5157 21.649 34.424 21.7121C32.8276 22.6381 31.2224 23.5701 29.6348 24.5051C30.838 27.1627 33.3627 28.4855 37.1793 28.4855H42.7814C48.3836 28.4855 51.1832 25.6385 51.1832 19.9324V8.54416C51.1832 2.84705 48.3836 0 42.7814 0H42.7873Z" fill="#101010"/>
<path d="M39.247 15.6943C38.9661 15.998 38.6232 16.1904 38.2803 16.3858C36.746 17.2787 35.2176 18.1746 33.6833 19.0735C33.4645 19.1938 33.2516 19.32 33.0358 19.4463C33.0033 19.4643 32.9797 19.4794 32.9471 19.4974C32.8791 19.5365 32.8111 19.5726 32.7461 19.6177C31.6286 20.264 30.5082 20.9164 29.3966 21.5718C29.2843 21.6349 29.1779 21.6981 29.0655 21.7612C29.033 21.7792 29.0035 21.8003 28.9709 21.8123C28.8822 21.8634 28.8024 21.9205 28.7078 21.9656C28.6132 22.0168 28.5216 22.0618 28.4152 22.1039C28.2585 22.1671 28.0959 22.2001 27.9274 22.1941C27.8594 22.2001 27.7914 22.1761 27.7263 22.2062H27.5194C26.8956 22.1039 26.5143 21.6981 26.4019 21.0126C26.3576 20.7781 26.3398 20.5316 26.3398 20.2911V9.17948C26.3398 8.75557 26.3901 8.31664 26.597 7.92882C26.7715 7.61315 27.0198 7.39067 27.3716 7.31852C27.7027 7.25539 28.0397 7.26741 28.3619 7.39368C28.3797 7.39969 28.4004 7.40571 28.4181 7.41773C28.4506 7.42374 28.4802 7.43577 28.5068 7.4508C28.7256 7.55302 28.9384 7.67929 29.1542 7.79954C29.1986 7.83261 29.2488 7.85666 29.2902 7.88071C30.4018 8.52108 31.5104 9.17346 32.6279 9.82284C32.6722 9.84689 32.7165 9.87395 32.7579 9.898C32.7905 9.91604 32.82 9.93708 32.8466 9.94911C34.1385 10.7097 35.4363 11.4643 36.7253 12.2189C37.417 12.6248 38.1236 13.0066 38.8035 13.4485C39.108 13.6319 39.3534 13.8875 39.5071 14.2152C39.7377 14.6962 39.6254 15.2614 39.2381 15.6853L39.247 15.6943Z" fill="#770080"/>
</svg>
